<?xml version="1.0" encoding="UTF-8"?>
<svg version="1.1" xmlns="http://www.w3.org/2000/svg" width="82" height="52">
<path d="M0 0 C27.06 0 54.12 0 82 0 C82 17.16 82 34.32 82 52 C54.94 52 27.88 52 0 52 C0 34.84 0 17.68 0 0 Z " fill="#BC0100" transform="translate(0,0)"/>
<path d="M0 0 C0.66 0 1.32 0 2 0 C2.66 2.97 3.32 5.94 4 9 C7.3 9 10.6 9 14 9 C11.74259377 11.33524782 9.7194239 13.18705073 7 15 C7.33 17.97 7.66 20.94 8 24 C5.86586929 22.93293464 3.73837899 21.84444156 1.6875 20.625 C-1.49277893 19.88540025 -2.07098676 20.30526258 -4.8125 21.875 C-5.864375 22.57625 -6.91625 23.2775 -8 24 C-7.4118332 20.97514219 -6.75929472 17.98613386 -6 15 C-6.5053125 14.57847656 -7.010625 14.15695313 -7.53125 13.72265625 C-8.1809375 13.17480469 -8.830625 12.62695312 -9.5 12.0625 C-10.1496875 11.51722656 -10.799375 10.97195312 -11.46875 10.41015625 C-12.22671875 9.71212891 -12.22671875 9.71212891 -13 9 C-13 8.67 -13 8.34 -13 8 C-9.37 8 -5.74 8 -2 8 C-1.67 6.35 -1.34 4.7 -1 3 C-0.67 2.01 -0.34 1.02 0 0 Z " fill="#DF740C" transform="translate(21,20)"/>
<path d="M0 0 C0.66 0 1.32 0 2 0 C2.66 2.31 3.32 4.62 4 7 C2.71034824 8.37562854 1.37310707 9.70766393 0 11 C-0.66 11 -1.32 11 -2 11 C-1.731875 11.721875 -1.46375 12.44375 -1.1875 13.1875 C-1 16 -1 16 -3.4375 18.8125 C-4.283125 19.534375 -5.12875 20.25625 -6 21 C-7.25541557 17.23375329 -6.37061958 15.62811066 -5 12 C-5.5053125 11.57847656 -6.010625 11.15695313 -6.53125 10.72265625 C-7.1809375 10.17480469 -7.830625 9.62695312 -8.5 9.0625 C-9.1496875 8.51722656 -9.799375 7.97195312 -10.46875 7.41015625 C-10.9740625 6.94480469 -11.479375 6.47945312 -12 6 C-12 5.67 -12 5.34 -12 5 C-8.37 5 -4.74 5 -1 5 C-0.67 3.35 -0.34 1.7 0 0 Z " fill="#C11201" transform="translate(20,23)"/>
<path d="M0 0 C2.4375 1.375 2.4375 1.375 3.25 4 C3.311875 4.78375 3.37375 5.5675 3.4375 6.375 C-0.5625 6.375 -0.5625 6.375 -2.8125 4.5 C-4.5625 2.375 -4.5625 2.375 -4.5625 0.375 C-2.5625 -0.625 -2.5625 -0.625 0 0 Z " fill="#E78D0E" transform="translate(35.5625,17.625)"/>
<path d="M0 0 C1.25541557 3.76624671 0.37061958 5.37188934 -1 9 C-1.66 9 -2.32 9 -3 9 C-3 8.34 -3 7.68 -3 7 C-4.3921875 7.3403125 -4.3921875 7.3403125 -5.8125 7.6875 C-6.864375 7.790625 -7.91625 7.89375 -9 8 C-9.99 7.01 -10.98 6.02 -12 5 C-8.37 5 -4.74 5 -1 5 C-0.67 3.35 -0.34 1.7 0 0 Z " fill="#E3800D" transform="translate(20,23)"/>
<path d="M0 0 C1.98 0 3.96 0 6 0 C5.67 0.66 5.34 1.32 5 2 C4.01 1.67 3.02 1.34 2 1 C2 1.99 2 2.98 2 4 C3.32 4 4.64 4 6 4 C6 4.66 6 5.32 6 6 C4.02 6 2.04 6 0 6 C0 4.02 0 2.04 0 0 Z " fill="#E78E0E" transform="translate(21,12)"/>
<path d="M0 0 C2.97 0.495 2.97 0.495 6 1 C5.01 1.33 4.02 1.66 3 2 C2.26676204 4.01508358 2.26676204 4.01508358 2 6 C1.01 5.67 0.02 5.34 -1 5 C-0.67 3.35 -0.34 1.7 0 0 Z " fill="#E27C0D" transform="translate(36,39)"/>
<path d="M0 0 C1.9375 0.75 1.9375 0.75 4 2 C5.12877968 4.82194921 5 6.87820239 5 10 C3 11.75 3 11.75 1 13 C1.94029851 8.1641791 1.94029851 8.1641791 2.75 5.9375 C3.23224345 3.83303528 3.23224345 3.83303528 1.5625 1.75 C1.046875 1.1725 0.53125 0.595 0 0 Z " fill="#EA9810" transform="translate(12,31)"/>
<path d="M0 0 C2.1875 0.3125 2.1875 0.3125 4 1 C4.33 2.32 4.66 3.64 5 5 C3.68 5.33 2.36 5.66 1 6 C0.67 5.01 0.34 4.02 0 3 C-0.99 3 -1.98 3 -3 3 C-1.75 1.4375 -1.75 1.4375 0 0 Z " fill="#E8910F" transform="translate(13,13)"/>
<path d="M0 0 C0.66 0.33 1.32 0.66 2 1 C1.814375 1.53625 1.62875 2.0725 1.4375 2.625 C0.88580676 5.61990614 1.39402556 8.03745829 2 11 C0.68 10.34 -0.64 9.68 -2 9 C-1.67 8.34 -1.34 7.68 -1 7 C-1.185625 6.175 -1.37125 5.35 -1.5625 4.5 C-1.706875 3.675 -1.85125 2.85 -2 2 C-1.34 1.34 -0.68 0.68 0 0 Z " fill="#E9950F" transform="translate(27,33)"/>
<path d="M0 0 C2.31 0 4.62 0 7 0 C5.35 1.65 3.7 3.3 2 5 C0 2 0 2 0 0 Z " fill="#BF0B01" transform="translate(24,30)"/>
</svg>
